<?xml version="1.0" ?><svg width="128px" fill="#EF6F6F" height="128px" viewBox="0 0 128 128" data-name="Layer 1" id="Layer_1" xmlns="http://www.w3.org/2000/svg"><title/><polygon points="56.995 62.851 49.29 76.196 57.093 89.711 72.405 89.711 80.038 76.49 72.163 62.851 56.995 62.851"/><path d="M64.75,36.34c-19.61,0-35.56,17.91-35.56,39.92s15.95,39.91,35.56,39.91,35.55-17.9,35.55-39.91S84.35,36.34,64.75,36.34ZM97.375,77.322H81.965l-7.73,13.389,7.778,13.472h6.81c-.633.693-1.287,1.363-1.966,2H81.965l-3.3,5.716a32.025,32.025,0,0,1-3.2,1.379l4.674-8.1L72.358,91.711H57.141l-7.777,13.472,4.674,8.1a32.037,32.037,0,0,1-3.2-1.379l-3.3-5.716H42.641c-.679-.637-1.332-1.307-1.966-2h6.81l7.778-13.472L47.534,77.322H32.124l-1.741,3.016c-.112-1.214-.169-2.445-.179-3.69l.091-.158-.1-.171v-.038c0-1.244.057-2.474.159-3.688l1.528,2.647H47.39l7.7-13.345-7.8-13.515H40.675c.633-.693,1.287-1.363,1.966-2h4.6l3.18-5.507a32.172,32.172,0,0,1,3.117-1.4l-4.492,7.78,7.8,13.515H72.164l7.8-13.515-4.628-8.016a31.957,31.957,0,0,1,3.052,1.286l3.381,5.856h5.086c.679.637,1.332,1.307,1.966,2h-7.1L74.09,61.6l7.875,13.639H97.133l1.943-3.366q.18,1.8.209,3.637l-.324.561.333.576c-.01,1.244-.067,2.476-.179,3.69Z"/><circle cx="55.254" cy="19.22" r="1.444"/><path d="M125.55,57.27l-10.6-19.39a19.924,19.924,0,0,0-27.04-7.94l-8.7,4.76c-.83-.37-1.67-.7-2.51-.99V24.479A5.8,5.8,0,0,0,74.911,13.45c-.112-.181-.236-.368-.381-.57-.01-.01-.01-.01-.01-.02h-.01a11.5,11.5,0,0,0-1.3-1.57,11.932,11.932,0,0,0-18.19,1.55c-.01.01-.01.01-.01.02a.01.01,0,0,0-.01.01c-.146.194-.274.389-.392.578a5.8,5.8,0,0,0-1.8,11.031V33.7q-1.26.45-2.43.96l-8.63-4.72a19.924,19.924,0,0,0-27.04,7.94L4.11,57.27a17.307,17.307,0,0,0,6.87,23.44,3.648,3.648,0,0,0,1.75.45,3.7,3.7,0,0,0,3.21-1.9l18.5-33.87a5.523,5.523,0,0,1,4.24-2.8c-8.71,8.49-13.66,20.62-13.66,33.67a49.073,49.073,0,0,0,3.36,17.95l-3.72,4.2a15.213,15.213,0,0,0,1.28,21.5,3.784,3.784,0,0,0,2.52.96,3.862,3.862,0,0,0,2.88-1.29l8.02-9.02a36.428,36.428,0,0,0,50.9-.11l8.12,9.13a3.81,3.81,0,0,0,2.63,1.28c.08,0,.16.01.24.01a3.79,3.79,0,0,0,2.52-.96,15.226,15.226,0,0,0,1.29-21.5l-3.87-4.35a49.021,49.021,0,0,0,3.29-17.8c0-13.05-4.96-25.2-13.68-33.69a5.52,5.52,0,0,1,4.42,2.82l18.5,33.87a3.64,3.64,0,0,0,4.95,1.45A17.3,17.3,0,0,0,125.55,57.27ZM74.25,15.41h0a3.81,3.81,0,1,1,0,7.62h0a3.81,3.81,0,1,1,0-7.62ZM51.44,19.22a3.815,3.815,0,1,1,3.81,3.81A3.815,3.815,0,0,1,51.44,19.22Zm51.04,57.04a47.037,47.037,0,0,1-3.35,17.59.357.357,0,0,0-.04.11,44.554,44.554,0,0,1-4.85,8.84c-.15.21-.29.43-.44.64-.06.08-.13.16-.19.24-.37.5-.74.99-1.13,1.46-.01.01-.01.01-.01.02q-1.365,1.65-2.85,3.14a34.55,34.55,0,0,1-49.63.12,41.221,41.221,0,0,1-2.88-3.15,43.769,43.769,0,0,1-6.65-11.23,46.909,46.909,0,0,1-3.44-17.78c0-13.29,5.34-25.57,14.65-33.71a36.6,36.6,0,0,1,9.06-5.87,34.664,34.664,0,0,1,3.39-1.33c.06-.02.11-.03.17-.05a33.969,33.969,0,0,1,24.57,1.42,36.761,36.761,0,0,1,9.01,5.86C97.16,50.72,102.48,63,102.48,76.26Z"/><circle cx="74.257" cy="19.22" r="1.444"/></svg>