<svg viewBox="0 0 200 200" xmlns="http://www.w3.org/2000/svg">
  <path fill="#EF6F6F" d="M42.1,-71C54.7,-65.6,65.2,-54.7,73.3,-41.9C81.4,-29.1,87.2,-14.6,86.3,-0.5C85.3,13.5,77.7,27,69,38.7C60.2,50.4,50.3,60.2,38.7,69.3C27,78.3,13.5,86.6,-0.9,88.2C-15.4,89.8,-30.7,84.8,-43.2,76.2C-55.7,67.6,-65.3,55.4,-70.4,42.1C-75.6,28.8,-76.3,14.4,-76.2,0C-76.1,-14.4,-75.4,-28.7,-70.4,-42.3C-65.4,-55.9,-56.2,-68.7,-43.8,-74.2C-31.4,-79.7,-15.7,-77.8,-0.5,-77C14.7,-76.2,29.5,-76.4,42.1,-71Z" transform="translate(100 100)" />
</svg>
