<?xml version="1.0" encoding="iso-8859-1"?>
<!-- Generator: Adobe Illustrator 18.0.0, SVG Export Plug-In . SVG Version: 6.00 Build 0)  -->
<!DOCTYPE svg PUBLIC "-//W3C//DTD SVG 1.1//EN" "http://www.w3.org/Graphics/SVG/1.1/DTD/svg11.dtd">
<svg fill="#EF6F6F" version="1.1" id="Capa_1" xmlns="http://www.w3.org/2000/svg" xmlns:xlink="http://www.w3.org/1999/xlink" x="0px" y="0px"
	 viewBox="0 0 392.747 392.747" style="enable-background:new 0 0 392.747 392.747;" xml:space="preserve">
<path d="M379.498,90.453l-40.104-16.18c-2.449-12.946-12.287-23.311-24.947-26.528l-2.169-24.992
	c-0.31-3.565-2.702-6.608-6.093-7.75c-3.392-1.142-7.138-0.168-9.541,2.484l-10.492,11.572l-6.437-22.531
	c-1.072-3.752-4.441-6.386-8.341-6.522c-3.898-0.121-7.443,2.258-8.774,5.928l-55.536,153.21
	c-39.95,10.374-74.835,35.938-96.262,70.724c-19.626,31.862-25.722,68.366-17.165,102.786c5.001,20.117,14.496,33.373,24.209,42.065
	h-7.639c-0.072,0-0.144,0.001-0.216,0.003c-36.135,0.881-69.622-19.663-85.259-52.307c-2.147-4.483-7.522-6.375-12.005-4.229
	c-4.483,2.148-6.376,7.522-4.228,12.005c18.31,38.226,57.078,62.557,99.286,62.557c0.842,0,171.829,0,171.829,0c4.971,0,9-4.029,9-9
	c0-24.226-19.323-35.268-36.377-39.321c7.974-15.546,8.663-29.218,7.759-38.162l2.352-0.314l53.943,82.713
	c1.662,2.547,4.497,4.083,7.539,4.083h32.755c3.277,0,6.296-1.782,7.879-4.651c1.584-2.869,1.482-6.373-0.265-9.146
	c-0.348-0.552-34.166-54.247-52.346-84.309V143.416c2.676,0.308,5.681,0.463,8.335,0.463c26.109,0,50.664-14.73,63.885-40.848
	c0.011-0.021,0.35-0.729,0.404-0.865C386.337,97.557,384.108,92.312,379.498,90.453z"/>
<g>
</g>
<g>
</g>
<g>
</g>
<g>
</g>
<g>
</g>
<g>
</g>
<g>
</g>
<g>
</g>
<g>
</g>
<g>
</g>
<g>
</g>
<g>
</g>
<g>
</g>
<g>
</g>
<g>
</g>
</svg>
